<?xml version="1.0" encoding="UTF-8" standalone="no"?>
<svg
   xmlns:dc="http://purl.org/dc/elements/1.1/"
   xmlns:cc="http://creativecommons.org/ns#"
   xmlns:rdf="http://www.w3.org/1999/02/22-rdf-syntax-ns#"
   xmlns:svg="http://www.w3.org/2000/svg"
   xmlns="http://www.w3.org/2000/svg"
   xmlns:sodipodi="http://sodipodi.sourceforge.net/DTD/sodipodi-0.dtd"
   xmlns:inkscape="http://www.inkscape.org/namespaces/inkscape"
   id="cb7db7bb-371f-430c-ab8e-9f8547f8cfe6"
   data-name="Layer 1"
   width="1130"
   height="816.01971"
   viewBox="0 0 1130 816.01974"
   version="1.1"
   sodipodi:docname="background.svg"
   inkscape:version="0.92.4 (5da689c313, 2019-01-14)">
  <metadata
     id="metadata206">
    <rdf:RDF>
      <cc:Work
         rdf:about="">
        <dc:format>image/svg+xml</dc:format>
        <dc:type
           rdf:resource="http://purl.org/dc/dcmitype/StillImage" />
        <dc:title>dashboard</dc:title>
      </cc:Work>
    </rdf:RDF>
  </metadata>
  <sodipodi:namedview
     pagecolor="#ffffff"
     bordercolor="#666666"
     borderopacity="1"
     objecttolerance="10"
     gridtolerance="10"
     guidetolerance="10"
     inkscape:pageopacity="0"
     inkscape:pageshadow="2"
     inkscape:window-width="1366"
     inkscape:window-height="705"
     id="namedview204"
     showgrid="false"
     inkscape:zoom="0.27185809"
     inkscape:cx="433.08613"
     inkscape:cy="302.32289"
     inkscape:window-x="-8"
     inkscape:window-y="-8"
     inkscape:window-maximized="1"
     inkscape:current-layer="cb7db7bb-371f-430c-ab8e-9f8547f8cfe6"
     fit-margin-top="0"
     fit-margin-left="0"
     fit-margin-right="0"
     fit-margin-bottom="0" />
  <defs
     id="defs9">
    <linearGradient
       id="be60935f-ac8f-4117-88a8-c3e19524f342"
       x1="340.5"
       y1="874.69"
       x2="340.5"
       y2="452.37"
       gradientUnits="userSpaceOnUse"
       gradientTransform="translate(594.44547,-68.020286)">
      <stop
         offset="0"
         stop-color="gray"
         stop-opacity="0.25"
         id="stop2" />
      <stop
         offset="0.54"
         stop-color="gray"
         stop-opacity="0.12"
         id="stop4" />
      <stop
         offset="1"
         stop-color="gray"
         stop-opacity="0.1"
         id="stop6" />
    </linearGradient>
  </defs>
  <title
     id="title11">dashboard</title>
  <path
     d="m 1108.14,197.61 a 231.21,231.21 0 0 0 -44.83,-60.38 l -621.86,-5.18 512,-60.789996 a 337.39,337.39 0 0 0 -103.88,-17.42 C 800.28,20.19 736.93,0 667.83,0 605.83,0 548.5,16.29 501.76,43.93 462.04,26.63 416.76,16.82 368.65,16.82 230.48,16.82 115.35,97.720004 89.52,205.01 Z"
     id="path13"
     inkscape:connector-curvature="0"
     style="opacity:0.1;fill:#63ff6f" />
  <path
     d="m 1130,287.59 a 197,197 0 0 0 -19.38,-84.92 L 32.86,298.31 A 209.54,209.54 0 0 0 7.61,352.22 L 341.36,394.28 0,424.94 C 10.27,546.4 133.43,642.3 283.88,642.3 c 75.73,0 144.54,-24.3 195.53,-63.93 51.15,40.38 120.62,65.21 197.17,65.21 113.57,0 211.6,-54.67 257.25,-133.71 91.58,-24.58 162.72,-86.28 187.07,-163.47 L 698.83,291.06 H 1130 c 0,-1.16 0,-2.31 0,-3.47 z"
     id="path15"
     inkscape:connector-curvature="0"
     style="opacity:0.1;fill:#63ff6f" />
  <ellipse
     cx="499.98001"
     cy="803.07971"
     rx="289.98001"
     ry="12.94"
     id="ellipse17"
     style="opacity:0.1;fill:#63ff6f" />
  <path
     d="m 672.09,780.31971 v 7.82 H 440.84 v -6.35 a 76,76 0 0 0 5.23,-140.37 h 224.45 a 76,76 0 0 0 1.57,138.9 z"
     id="path19"
     inkscape:connector-curvature="0"
     style="fill:#c8cad7" />
  <path
     d="m 670.52,641.41971 a 76.11,76.11 0 0 0 -42,50.39 H 488.08 a 76.13,76.13 0 0 0 -42,-50.39 z"
     id="path21"
     inkscape:connector-curvature="0"
     style="opacity:0.1" />
  <path
     d="m 176,601.57971 v 43.9 c 0,24.24 17.74,43.89 39.63,43.89 h 680.42 c 21.89,0 39.63,-19.65 39.63,-43.89 v -43.9 z"
     id="path23"
     inkscape:connector-curvature="0"
     style="fill:#c8cad7" />
  <path
     d="m 672.09,780.31971 v 7.82 H 440.84 v -6.35 a 76,76 0 0 0 17.83,-9.5 h 199.24 a 76.39,76.39 0 0 0 14.18,8.03 z"
     id="path25"
     inkscape:connector-curvature="0"
     style="opacity:0.1" />
  <rect
     x="364.42001"
     y="774.72968"
     width="384.09"
     height="23.17"
     rx="9.5"
     ry="9.5"
     id="rect27"
     style="fill:#c8cad7" />
  <path
     d="M 935.68,120.54971 A 39.62,39.62 0 0 0 896.05,80.979714 H 215.66 A 39.62,39.62 0 0 0 176,120.54971 v 489.57 h 759.68 z"
     id="path29"
     inkscape:connector-curvature="0"
     style="fill:#474157" />
  <path
     d="m 915,138.22971 v 420.67 a 19.5,19.5 0 0 1 -19.51,19.51 H 216.27 a 19.5,19.5 0 0 1 -19.51,-19.51 v -420.67 a 19.51,19.51 0 0 1 19.51,-19.51 h 679.17 a 19.51,19.51 0 0 1 19.56,19.51 z"
     id="path31"
     style="fill:#1a1a1a"
     inkscape:connector-curvature="0" />
  <circle
     cx="555.84998"
     cy="99.81971"
     r="9.1499996"
     id="circle33"
     style="fill:#ffffff" />
  <circle
     cx="555.84998"
     cy="647.30969"
     r="22.559999"
     id="circle35"
     style="fill:#ffffff" />
  <path
     d="m 348.53,128.47971 v 449.93 H 216.27 a 19.5,19.5 0 0 1 -19.51,-19.51 v -420.67 l 0.71,-2.65 1.9,-7.1 z"
     id="path37"
     style="fill:#ffffff"
     inkscape:connector-curvature="0" />
  <polygon
     points="197.47,187.65 365.5,187.65 365.5,228.15 196.76,228.15 196.76,190.3 "
     id="polygon39"
     style="fill:#4c4c78"
     transform="translate(0,-52.070286)" />
  <path
     d="M 915,138.22971 H 196.76 a 19.5,19.5 0 0 1 19.51,-19.5 h 679.17 a 19.5,19.5 0 0 1 19.56,19.5 z"
     id="path41"
     inkscape:connector-curvature="0"
     style="fill:#c8cad7" />
  <circle
     cx="216.27"
     cy="128.47972"
     r="4.8800001"
     id="circle43"
     style="fill:#ededf4" />
  <circle
     cx="230.89999"
     cy="128.47972"
     r="4.8800001"
     id="circle45"
     style="fill:#ededf4" />
  <circle
     cx="245.53"
     cy="128.47972"
     r="4.8800001"
     id="circle47"
     style="fill:#ededf4" />
  <rect
     x="221.98"
     y="153.40971"
     width="101.33"
     height="9.3299999"
     id="rect49"
     style="fill:#63ff6f" />
  <rect
     x="221.98"
     y="198.90971"
     width="101.33"
     height="9.3299999"
     id="rect51"
     style="opacity:0.5;fill:#63ff6f" />
  <rect
     x="221.98"
     y="231.07971"
     width="101.33"
     height="9.3299999"
     id="rect53"
     style="opacity:0.5;fill:#63ff6f" />
  <rect
     x="221.98"
     y="263.24973"
     width="101.33"
     height="9.3299999"
     id="rect55"
     style="opacity:0.5;fill:#63ff6f" />
  <rect
     x="221.98"
     y="295.40973"
     width="101.33"
     height="9.3299999"
     id="rect57"
     style="opacity:0.5;fill:#63ff6f" />
  <rect
     x="221.98"
     y="327.57971"
     width="101.33"
     height="9.3299999"
     id="rect59"
     style="opacity:0.5;fill:#63ff6f" />
  <rect
     x="221.98"
     y="359.74973"
     width="101.33"
     height="9.3299999"
     id="rect61"
     style="opacity:0.5;fill:#63ff6f" />
  <rect
     x="221.98"
     y="391.90973"
     width="101.33"
     height="9.3299999"
     id="rect63"
     style="opacity:0.5;fill:#63ff6f" />
  <rect
     x="431.48999"
     y="187.71971"
     width="449.01001"
     height="1.5"
     id="rect65"
     style="opacity:0.5;fill:#dce0ed" />
  <rect
     x="431.48999"
     y="222.54971"
     width="449.01001"
     height="1.5"
     id="rect67"
     style="opacity:0.5;fill:#dce0ed" />
  <rect
     x="431.48999"
     y="257.38971"
     width="449.01001"
     height="1.5"
     id="rect69"
     style="opacity:0.5;fill:#dce0ed" />
  <rect
     x="431.48999"
     y="292.21973"
     width="449.01001"
     height="1.5"
     id="rect71"
     style="opacity:0.5;fill:#dce0ed" />
  <rect
     x="431.48999"
     y="327.04971"
     width="449.01001"
     height="1.5"
     id="rect73"
     style="opacity:0.5;fill:#dce0ed" />
  <polygon
     points="514.84,338.21 552.28,326.92 597.45,291.89 620.17,278.77 636.78,275.57 652.67,276.42 678.81,289.33 714.33,311.96 742.21,315.55 764.32,307.93 811.17,269.55 835.09,261.02 860.12,264.89 880.51,276.66 880.51,380.61 430.94,380.61 430.94,312.11 472.17,332.43 "
     id="polygon75"
     style="opacity:0.5;fill:#63ff6f"
     transform="translate(0,-52.070286)" />
  <path
     d="m 509.3,286.15971 c -40.48,0 -77.9,-24.76 -78.36,-25.08 l 1.11,-1.66 c 0.58,0.39 58.16,38.49 107.09,19.4 17.86,-6.95 30.54,-17.78 42.86,-28.24 12.83,-10.93 24.95,-21.26 41.46,-25.74 19,-5.13 39.65,-0.48 55.38,12.44 13.44,11.05 40.22,28.8 68.51,23.49 14.42,-2.7 26.58,-13.24 39.45,-24.39 24.64,-21.4 50.2,-43.49 94.29,-11.77 l -1.17,1.62 c -42.85,-30.79 -67.76,-9.21 -91.84,11.66 -13.08,11.34 -25.44,22 -40.39,24.85 -29.1,5.45 -56.44,-12.64 -70.15,-23.91 -15.23,-12.52 -35.26,-17 -53.58,-12.05 -16.09,4.36 -28,14.54 -40.69,25.32 -12.41,10.57 -25.25,21.51 -43.4,28.59 a 83.88,83.88 0 0 1 -30.57,5.47 z"
     id="path77"
     inkscape:connector-curvature="0"
     style="fill:#63ff6f" />
  <circle
     cx="647.54999"
     cy="223.29971"
     r="11.13"
     id="circle79"
     style="fill:#63ff6f" />
  <path
     d="m 998.06547,465.16971 c -15.21,-8.76 -21,-10.93 -21,-10.94 l -0.31,-0.22 a 12.66,12.66 0 0 1 -3.84,-4.85 c 0,-0.35 0,-0.7 0,-1 v 0.1 c 0.25,-4.64 3.54,-8.85 6.67,-12.53 q 4,-4.71 8,-9.41 a 9.19,9.19 0 0 0 2.06,-3.34 7.49,7.49 0 0 0 0.22,-2 c 0,-0.28 0,-0.55 0,-0.82 0,-2.34 -0.11,-4.68 -0.19,-7 -0.08,-2.05 -0.6,-4.62 -2.65,-5 -1.06,-0.22 -2.46,0.16 -3,-0.75 a 1.68,1.68 0 0 1 -0.14,-1.21 c 0,0 0,0.06 0,0.09 a 0.52,0.52 0 0 1 0,-0.11 27.65,27.65 0 0 0 0.76,-4.81 6.9,6.9 0 0 0 -0.33,-2.43 c -1.19,-3.39 -5.26,-4.78 -8.86,-5.42 -3.6,-0.64 -7.64,-1.19 -9.9,-4 a 32.74,32.74 0 0 0 -2,-2.71 7.88,7.88 0 0 0 -3.69,-1.82 20.72,20.72 0 0 0 -13.38,1.17 c -1.74,0.78 -3.49,1.82 -5.4,1.71 -1.91,-0.11 -3.68,-1.5 -5.64,-1.83 -3.16,-0.54 -6.19,1.79 -7.75,4.54 a 11,11 0 0 0 -1.43,5.35 c 0,0.1 0,0.21 0,0.31 v 0 a 7.86,7.86 0 0 0 2.06,5.46 c 1.36,1.42 3.39,2.39 4,4.25 0.23,0.76 0.18,1.58 0.38,2.34 0,0.1 0.06,0.19 0.09,0.29 l -0.11,0.13 a 23.77,23.77 0 0 0 -5,14.62 24.26,24.26 0 0 0 17,23 c 0,0.23 0,0.47 0,0.72 a 10.34,10.34 0 0 1 -3.3,8.05 l -21.58,8.66 c 0,0 -13,-1.54 -17.68,17.45 a 32.16,32.16 0 0 0 -0.8,9.63 c 0.17,2.87 -0.23,7.91 -3.56,14.43 -5.33,10.44 -4.12,34.39 6.78,36.76 10.29,2.24 14.32,1.31 14.74,1.2 v 0.42 c -0.17,4.5 -1.8,43.26 -7.73,48 -1.65,1.29 -1.34,2.17 0,2.76 0,0 0,0.25 0,0.7 -0.18,2.84 -1.1,13.63 -5.07,19.78 -4.56,7.09 -4.04,48.09 -4.04,48.09 l -3.14,24.19 c 0,0 1.93,14.94 0,17.55 -1.73,2.33 -4,57.61 -4.52,69.59 h -0.2 a 5.83,5.83 0 0 0 -4.66,2.84 c -2.58,4.14 -11.48,11.77 -11.48,11.77 -1.93,2.75 -9.09,5.38 -12.87,6.62 a 8.25,8.25 0 0 0 -1.46,0.63 7.68,7.68 0 0 0 -3.25,3.42 3.66,3.66 0 0 0 -0.34,2.85 c 1,2.37 21.07,4 26.15,1.66 4,-1.86 19.84,-4.32 26.42,-5.28 a 5.42,5.42 0 0 0 4.7,-4.7 3.1,3.1 0 0 0 -0.6,-2.35 v 0 c -1.26,-1.56 -1.91,-5.82 -2.2,-8.6 a 5.85,5.85 0 0 0 1.48,-0.88 63.09,63.09 0 0 1 3.63,-25.38 c 4.84,-12.8 6.3,-36.52 5.09,-51.94 0,0 14.77,-63.57 26.4,-69.5 v 0 c 0.18,0.22 5.82,7.46 6.54,29.88 0.72,22.77 8.95,37.71 8.95,37.71 0,0 -3.63,38.66 0,53.13 l -4.77,22.79 a 7.39,7.39 0 0 1 -0.57,-0.52 c 0,0 0.14,0.64 0.34,1.65 l -0.1,0.48 0.2,0.05 c 0.54,2.85 1.34,7.82 1,10.74 -0.19,1.67 -0.65,3.94 -1,6.18 -0.5,3.51 -0.64,6.92 1.21,7.66 3,1.22 20.83,2.89 23.86,-1 a 5.61,5.61 0 0 0 0.88,-5.86 6,6 0 0 0 -0.88,-1.49 c 0,0 -4.73,-7.73 -3.39,-13.18 a 4,4 0 0 0 -0.57,-3.12 161.08,161.08 0 0 1 4.15,-25.59 c 3,-11.41 9.42,-36.43 4.72,-52.89 v 0 c -0.18,-0.64 -0.38,-1.28 -0.6,-1.9 a 71,71 0 0 1 -2.67,-27.75 56.41,56.41 0 0 1 0,-24.19 c 2.88,-13.27 4.91,-26.27 4.91,-26.27 0,0 1.6,-17.55 0.2,-28.31 l -0.09,-0.69 0.76,-0.17 c 0,0 -4.11,-18.26 -5.57,-29.88 -0.34,-2.75 -0.79,-6.22 -1.28,-9.93 a 26.22,26.22 0 0 0 3.95,-1 c 13.08003,-4.51 17.19003,-45.31 17.19003,-45.31 v -12.94 c 0,0 4.36,-19.77 -10.90003,-28.58 z m -97.43,315 -0.64,-0.34 v 0 z"
     id="path81"
     style="fill:url(#be60935f-ac8f-4117-88a8-c3e19524f342)"
     inkscape:connector-curvature="0" />
  <path
     d="m 990.17547,700.57971 c 5.67,16.31 -1,42.78 -4,54.6 a 165.7,165.7 0 0 0 -4,26 55,55 0 0 1 -20.8,-0.48 l 5,-24.34 c -3.54,-14.42 0,-52.95 0,-52.95 0,0 -8,-14.9 -8.74,-37.59 -0.7,-22.33 -6.2,-29.55 -6.38,-29.78 v 0 c -11.43,5.94 -25.81,69.27 -25.81,69.27 1.18,15.36 -0.24,39 -5,51.77 a 64.05,64.05 0 0 0 -3.55,25.29 c -1.65,1.39 -3.95,1.63 -6.43,1.23 -6.75,-1.09 -14.84,-6.91 -14.84,-6.91 0,0 2.6,-69 4.49,-71.62 1.89,-2.62 0,-17.49 0,-17.49 l 3.07,-24.11 c 0,0 -0.47,-40.89 4,-48 3.88,-6.13 4.77,-16.89 4.95,-19.71 0,-0.45 0,-0.7 0,-0.7 l 6.84,-8.19 c 0,0 66.19,-5 71.15,0 1.22,1.22 2,4 2.42,7.48 1.36,10.72 -0.2,28.21 -0.2,28.21 0,0 -2,13 -4.82,26.23 a 57.4,57.4 0 0 0 0,24.11 72,72 0 0 0 2.65,27.68 z"
     id="path83"
     inkscape:connector-curvature="0"
     style="fill:#65617d" />
  <path
     d="m 986.03547,804.22971 c -2.95,3.9 -20.32,2.25 -23.28,1 -1.81,-0.75 -1.67,-4.14 -1.18,-7.64 0.31,-2.23 0.76,-4.5 0.94,-6.15 0.48,-4.26 -1.41,-12.89 -1.41,-12.89 0,0 3.9,4.14 4.84,0 a 4.5,4.5 0 0 1 3.37,-3.2 8.84,8.84 0 0 1 6.14,0.38 c 3.07,1.33 8.19,4.17 7.27,8 -1.3,5.43 3.31,13.13 3.31,13.13 a 5.93,5.93 0 0 1 0.86,1.49 5.67,5.67 0 0 1 -0.86,5.88 z"
     id="path85"
     inkscape:connector-curvature="0"
     style="fill:#a27772" />
  <path
     d="m 986.03547,804.22971 c -2.95,3.9 -20.32,2.25 -23.28,1 -1.81,-0.75 -1.67,-4.14 -1.18,-7.64 1.86,0.87 5,1.6 10.32,1.11 a 28.9,28.9 0 0 1 3.72,-0.12 85.06,85.06 0 0 0 11.28,-0.22 5.67,5.67 0 0 1 -0.86,5.87 z"
     id="path87"
     inkscape:connector-curvature="0"
     style="opacity:0.1" />
  <path
     d="m 925.44547,705.30971 c 1.18,15.36 -0.24,39 -5,51.77 a 64.05,64.05 0 0 0 -3.55,25.29 c -1.65,1.39 -3.95,1.63 -6.43,1.23 1.43,-10 7.5,-52.93 11.4,-86.86 4.43,-38.65 25.17,-65.24 25.17,-65.24 l 4.14,4.55 c -11.35,5.93 -25.73,69.26 -25.73,69.26 z"
     id="path89"
     inkscape:connector-curvature="0"
     style="opacity:0.1" />
  <path
     d="m 978.94547,456.87971 -2.89,14.18 -14.13,23.76 -17.43,-7.45 c 0,0 -23.7,-24.82 -8.81,-28.36 a 13.13,13.13 0 0 0 4.95,-2.2 c 2.92,-2.21 3.84,-5.41 3.86,-8.55 a 26.29,26.29 0 0 0 -2.42,-10.17 l 30.49,-9.57 a 48.52,48.52 0 0 0 -2.19,12.35 c -0.23,8.3 2.85,12.4 5.38,14.35 a 9.06,9.06 0 0 0 3.19,1.66 z"
     id="path91"
     inkscape:connector-curvature="0"
     style="fill:#fbbebe" />
  <path
     d="m 972.56547,428.51971 a 48.52,48.52 0 0 0 -2.19,12.35 24.1,24.1 0 0 1 -25.88,7.39 26.29,26.29 0 0 0 -2.42,-10.17 z"
     id="path93"
     inkscape:connector-curvature="0"
     style="opacity:0.1" />
  <path
     d="m 976.05547,424.61971 a 24.11,24.11 0 1 1 -24.11,-24.11 24.05,24.05 0 0 1 24.11,24.11 z"
     id="path95"
     inkscape:connector-curvature="0"
     style="fill:#fbbebe" />
  <path
     d="m 978.94547,456.87971 -2.89,14.18 -14.13,23.76 -17.43,-7.45 c 0,0 -23.7,-24.82 -8.81,-28.36 a 13.13,13.13 0 0 0 4.95,-2.2 c -2.69,7.39 8.41,22.76 8.41,22.76 1.29,1.9 4.26,0.71 4.26,0.71 7.14,-1.08 20.31,-21.64 22.45,-25.06 a 9.06,9.06 0 0 0 3.19,1.66 z"
     id="path97"
     inkscape:connector-curvature="0"
     style="opacity:0.1" />
  <path
     d="m 992.59547,594.36971 c -4.2,1 -27.42,6.09 -36.22,4.81 -9.69,-1.42 -28.54,-2.36 -28.54,-2.36 0,0 -12,0.64 -15.68,-1 0,-0.45 0,-0.7 0,-0.7 l 6.84,-8.19 c 0,0 66.19,-5 71.15,0 1.3,1.18 2,3.95 2.45,7.44 z"
     id="path99"
     inkscape:connector-curvature="0"
     style="opacity:0.1" />
  <path
     d="m 949.04547,480.27971 c 0,0 -12.47,-17.27 -7.77,-24 l -21.07,8.64 c 0,0 -12.68,-1.54 -17.25,17.38 a 33,33 0 0 0 -0.79,9.61 c 0.17,2.85 -0.22,7.87 -3.47,14.37 -5.2,10.4 -4,34.28 6.62,36.64 10.62,2.36 14.42,1.18 14.42,1.18 0,0 -1.42,43.26 -7.56,48.22 -6.14,4.96 15.67,3.78 15.67,3.78 0,0 18.84,1 28.53,2.37 9.69,1.37 36.87,-5 36.87,-5 0,0 -4,-18.2 -5.44,-29.78 -1.44,-11.58 -4.72,-36.24 -4.72,-36.24 l 24.11003,-32.66 c 0,0 4.25,-19.74 -10.64003,-28.48 -14.89,-8.74 -20.5,-10.9 -20.5,-10.9 0,0 -15,24.37 -22.76,25.55 0,0.02 -2.96,1.22 -4.25,-0.68 z"
     id="path101"
     inkscape:connector-curvature="0"
     style="fill:#ff748e" />
  <path
     d="m 921.38547,487.13971 c 0,0 -0.23,7.8 1.19,10.87 1.42,3.07 6.61,20.09 6.61,20.09 h -11.81 c 0,0 6.38,-6.85 5.91,-10.16 -0.47,-3.31 -1.9,-20.8 -1.9,-20.8 z"
     id="path103"
     inkscape:connector-curvature="0"
     style="opacity:0.1" />
  <path
     d="m 956.37547,545.97971 c 0,0 -26.1,-6.38 -28.53,-11.81 -2.43,-5.43 -9.14,-17.61 -9.14,-17.61 l 2.75,-3.71 12.7,10 c 0,0 15.13,12 22.22,13.24 7.09,1.24 0,9.89 0,9.89 z"
     id="path105"
     inkscape:connector-curvature="0"
     style="fill:#fbbebe" />
  <path
     d="m 956.37547,545.97971 c 0,0 -26.1,-6.38 -28.53,-11.81 -2.43,-5.43 -9.14,-17.61 -9.14,-17.61 l 2.75,-3.71 12.7,10 c 0,0 15.13,12 22.22,13.24 7.09,1.24 0,9.89 0,9.89 z"
     id="path107"
     inkscape:connector-curvature="0"
     style="opacity:0.05" />
  <path
     d="m 978.94547,515.26971 v 14.16 h -2.28 a 66.24,66.24 0 0 0 -32.14,8.32 l -4.26,2.36 -1.15,0.64 -7.33,-16.5 6.86,-6.15 h 0.35 c 1.68,0.16 8.93,0.76 12,-0.27 3.07,-1.03 6.55,-4.14 15.14,-1.94 4.24,1.08 7.85,5.83 12,4.35 z"
     id="path109"
     inkscape:connector-curvature="0"
     style="fill:#fbbebe" />
  <path
     d="m 1001.7555,489.49971 4.73,5.32 v 12.88 c 0,0 -4,40.66 -16.78003,45.15 -12.78,4.49 -35.55,-2.6 -35.55,-2.6 0,0 -5.89,-15.6 -3.14,-16.55 2.75,-0.95 24.34,-6.64 24.34,-6.64 0,0 -0.31,-23.85 4.42,-30.94 0,0 -3.07,-22.22 7.56,-22.69 10.63,-0.47 14.42003,16.07 14.42003,16.07 z"
     id="path111"
     inkscape:connector-curvature="0"
     style="opacity:0.1" />
  <path
     d="m 1002.4455,489.49971 4.73,5.32 v 12.88 c 0,0 -4,40.66 -16.79003,45.15 -12.79,4.49 -35.54,-2.6 -35.54,-2.6 0,0 -5.89,-15.6 -3.14,-16.55 2.75,-0.95 24.33,-6.64 24.33,-6.64 0,0 -0.3,-23.85 4.43,-30.94 0,0 -3.08,-22.22 7.56,-22.69 10.64,-0.47 14.42003,16.07 14.42003,16.07 z"
     id="path113"
     inkscape:connector-curvature="0"
     style="fill:#ff748e" />
  <path
     d="m 969.44547,434.85971 a 9.31,9.31 0 0 0 -0.54,-4.6 3.53,3.53 0 0 0 -3.74,-2.16 c -2,0.47 -2.9,3.1 -4.88,3.73 -1.67,0.53 -3.5,-0.65 -4.3,-2.21 a 11.3,11.3 0 0 1 -0.82,-5.14 c 0,-2 0,-3.95 0,-5.93 0,-2.15 -0.07,-4.47 -1.4,-6.16 -1.65,-2.1 -5.52,-3 -8.1,-2.93 a 6.87,6.87 0 0 0 -4.63,1.86 6,6 0 0 1 -4.87,1.74 4.21,4.21 0 0 1 -3.39,-2.94 0.24,0.24 0 0 1 0,-0.08 24.11,24.11 0 1 1 35.86,32 66.79,66.79 0 0 0 0.81,-7.18 z"
     id="path115"
     inkscape:connector-curvature="0"
     style="opacity:0.1" />
  <path
     d="m 936.15547,412.34971 a 4.24,4.24 0 0 1 -3.4,-2.94 c -0.19,-0.76 -0.14,-1.58 -0.37,-2.33 -0.55,-1.86 -2.53,-2.83 -3.86,-4.24 -2.66,-2.82 -2.49,-7.47 -0.61,-10.87 1.53,-2.74 4.48,-5.05 7.57,-4.52 1.91,0.34 3.56,1.7 5.5,1.82 1.94,0.12 3.57,-0.92 5.27,-1.7 a 19.84,19.84 0 0 1 13.06,-1.16 7.56,7.56 0 0 1 3.6,1.81 30.59,30.59 0 0 1 1.92,2.7 c 2.2,2.81 6.15,3.36 9.66,4 3.51,0.64 7.49,2 8.64,5.41 0.77,2.24 0,4.67 -0.41,7 a 2,2 0 0 0 0.09,1.45 c 0.55,0.91 1.92,0.53 3,0.74 2,0.42 2.5,3 2.57,5 q 0.14,3.48 0.19,7 a 9,9 0 0 1 -0.2,2.59 9.17,9.17 0 0 1 -2,3.25 l -7.81,9.38 c -3.46,4.16 -7.13,9 -6.44,14.37 -1.64,0.73 -3.58,-0.68 -4.12,-2.4 -0.54,-1.72 -0.11,-3.56 0.26,-5.32 a 65.36,65.36 0 0 0 1.23,-9.23 9.34,9.34 0 0 0 -0.54,-4.61 3.54,3.54 0 0 0 -3.75,-2.16 c -2,0.47 -2.89,3.1 -4.87,3.73 -1.67,0.54 -3.5,-0.65 -4.3,-2.21 a 11.43,11.43 0 0 1 -0.82,-5.14 v -5.93 c 0,-2.15 -0.07,-4.47 -1.4,-6.16 -1.64,-2.1 -5.52,-3 -8.1,-2.93 a 6.87,6.87 0 0 0 -4.63,1.86 6,6 0 0 1 -4.93,1.74 z"
     id="path117"
     inkscape:connector-curvature="0"
     style="fill:#7c5c5c" />
  <path
     d="m 941.59547,486.54971 7.41,30.4 c 0,0 5.83,-0.03 -7.41,-30.4 z"
     id="path119"
     inkscape:connector-curvature="0"
     style="opacity:0.1" />
  <path
     d="m 966.89547,481.45971 c 0,0 -9.7,15.88 -5.91,32.29 l 1.8,0.13 c 0,0 -3.22,-7.6 4.11,-32.42 z"
     id="path121"
     inkscape:connector-curvature="0"
     style="opacity:0.1" />
  <path
     d="m 973.03547,571.28971 c 0,0 11.9,-3.94 12.77,5.2 0,0 -2.25,-6.27 -12.77,-5.2 z"
     id="path123"
     inkscape:connector-curvature="0"
     style="opacity:0.1" />
  <path
     d="m 938.64547,518.80971 c 0,0 -2.36,16.55 1.89,23.17 a 51.94,51.94 0 0 1 -20.8,2.83 l -1.42,-26 z"
     id="path125"
     inkscape:connector-curvature="0"
     style="opacity:0.1" />
  <path
     d="m 940.26547,540.10971 -1.15,0.64 -7.33,-16.5 6.86,-6.15 h 0.35 v 0 c -0.11,0.8 -2.02,15.01 1.27,22.01 z"
     id="path127"
     inkscape:connector-curvature="0"
     style="opacity:0.1" />
  <path
     d="m 938.64547,518.09971 c 0,0 -2.36,16.55 1.89,23.17 a 51.94,51.94 0 0 1 -20.8,2.83 l -8.27,-26 z"
     id="path129"
     inkscape:connector-curvature="0"
     style="fill:#ff748e" />
  <path
     d="m 918.19547,794.16971 a 5.34,5.34 0 0 1 -4.59,4.68 c -6.41,1 -21.88,3.4 -25.78,5.26 -5,2.37 -24.58,0.71 -25.53,-1.65 a 3.75,3.75 0 0 1 0.34,-2.85 7.79,7.79 0 0 1 4.59,-4 c 3.7,-1.24 10.68,-3.85 12.56,-6.59 0,0 8.7,-7.62 11.18,-11.73 a 5.66,5.66 0 0 1 4.55,-2.83 c 2.07,-0.1 4.37,0.95 5.32,5.48 0,0 11.34,6.47 14.41,0.8 0,0 0.47,8.71 2.35,11.1 v 0 a 3.13,3.13 0 0 1 0.6,2.33 z"
     id="path131"
     inkscape:connector-curvature="0"
     style="fill:#a27772" />
  <path
     d="m 918.19547,794.16971 a 5.34,5.34 0 0 1 -4.59,4.68 c -6.41,1 -21.88,3.4 -25.78,5.26 -5,2.37 -24.58,0.71 -25.53,-1.65 a 3.75,3.75 0 0 1 0.34,-2.85 7.57,7.57 0 0 1 3.17,-3.4 c 3.2,2.12 10.3,4.2 25.92,1.76 14.9,-2.33 22.27,-4.61 25.87,-6.16 v 0 a 3.13,3.13 0 0 1 0.6,2.36 z"
     id="path133"
     inkscape:connector-curvature="0"
     style="opacity:0.1" />
  <g
     id="g143"
     transform="translate(629.44547,-52.070286)"
     style="opacity:0.1">
    <path
       d="m 388.25,475.67 a 0.5,0.5 0 0 0 0,-0.12 21.55,21.55 0 0 0 0.73,-5.36 33.89,33.89 0 0 1 -0.73,4.3 2.62,2.62 0 0 0 0,1.18 z"
       transform="translate(-35,-15.95)"
       id="path135"
       inkscape:connector-curvature="0" />
    <path
       d="m 374.46,497.79 a 7,7 0 0 1 0.58,2.7 8.11,8.11 0 0 0 -0.58,-3.76 3.55,3.55 0 0 0 -3.75,-2.17 c -2,0.47 -2.89,3.11 -4.87,3.74 -1.67,0.53 -3.5,-0.66 -4.3,-2.22 a 11.17,11.17 0 0 1 -0.82,-5.14 c 0,-2 0,-3.95 0,-5.92 0,-2.15 -0.07,-4.47 -1.4,-6.16 -1.65,-2.11 -5.52,-3 -8.11,-2.94 a 6.83,6.83 0 0 0 -4.62,1.87 6,6 0 0 1 -4.87,1.73 4.19,4.19 0 0 1 -3.4,-2.94 c -0.2,-0.76 -0.14,-1.57 -0.37,-2.33 -0.55,-1.86 -2.53,-2.82 -3.86,-4.23 a 7.78,7.78 0 0 1 -2,-5 8.09,8.09 0 0 0 2,6.06 c 1.33,1.41 3.31,2.38 3.86,4.24 0.23,0.75 0.17,1.57 0.37,2.33 a 4.23,4.23 0 0 0 3.4,2.94 6,6 0 0 0 4.87,-1.74 6.93,6.93 0 0 1 4.61,-1.85 c 2.59,-0.08 6.46,0.84 8.11,2.94 1.33,1.69 1.39,4 1.4,6.16 0,2 0,3.95 0,5.92 a 11.19,11.19 0 0 0 0.82,5.15 c 0.8,1.56 2.63,2.74 4.3,2.21 2,-0.63 2.85,-3.26 4.87,-3.74 a 3.57,3.57 0 0 1 3.76,2.15 z"
       transform="translate(-35,-15.95)"
       id="path137"
       inkscape:connector-curvature="0" />
    <path
       d="m 393.89,491.28 a 9.3,9.3 0 0 1 -2,3.26 q -3.92,4.68 -7.81,9.37 c -3.28,3.95 -6.76,8.52 -6.51,13.56 0.24,-4.62 3.46,-8.82 6.51,-12.49 l 7.81,-9.38 a 9.26,9.26 0 0 0 2,-3.25 9,9 0 0 0 0.2,-2.6 6.48,6.48 0 0 1 -0.2,1.53 z"
       transform="translate(-35,-15.95)"
       id="path139"
       inkscape:connector-curvature="0" />
    <path
       d="m 373.51,515.89 a 5.58,5.58 0 0 1 -0.24,-1.27 6.33,6.33 0 0 0 0.24,2.33 c 0.53,1.72 2.48,3.13 4.12,2.4 0,-0.35 -0.07,-0.7 -0.08,-1 -1.62,0.65 -3.55,-0.78 -4.04,-2.46 z"
       transform="translate(-35,-15.95)"
       id="path141"
       inkscape:connector-curvature="0" />
  </g>
  <path
     d="m 889.44547,779.39971 c 0,0 2.47,4.34 11.43,0.51"
     id="path145"
     inkscape:connector-curvature="0"
     style="opacity:0.1" />
  <path
     d="m 965.09547,780.43971 c 0,0 7.73,9.09 17.46,3"
     id="path147"
     inkscape:connector-curvature="0"
     style="opacity:0.1" />
  <path
     d="m 987.57547,672.91971 c 0,0 -5.46,3.41 -5.64,5.36 -0.18,1.95 2.82,-1.42 2.82,-1.42 z"
     id="path149"
     inkscape:connector-curvature="0"
     style="opacity:0.1" />
  <path
     d="m 989.72547,699.05971 a 11.33,11.33 0 0 1 -6.72,2.62 c -4.08,0.18 -3.74,5.5 -1.07,3.9 2.67,-1.6 7.79,-6.52 7.79,-6.52 z"
     id="path151"
     inkscape:connector-curvature="0"
     style="opacity:0.1" />
  <path
     d="m 990.76547,702.46971 c 0,0 -2.62,12.86 -4.75,10.38"
     id="path153"
     inkscape:connector-curvature="0"
     style="opacity:0.1" />
  <g
     id="g161"
     style="opacity:0.5"
     transform="translate(0,-52.070286)">
    <rect
       x="471.17001"
       y="458.64999"
       width="66"
       height="14"
       id="rect155"
       style="fill:#dce0ed" />
    <rect
       x="622.71997"
       y="458.64999"
       width="66"
       height="14"
       id="rect157"
       style="fill:#dce0ed" />
    <rect
       x="774.27002"
       y="458.64999"
       width="66"
       height="14"
       id="rect159"
       style="fill:#dce0ed" />
  </g>
  <ellipse
     cx="952.72998"
     cy="749.21967"
     rx="26.93"
     ry="4.5500002"
     id="ellipse163"
     style="opacity:0.1;fill:#63ff6f" />
  <ellipse
     cx="115.22"
     cy="806.66968"
     rx="26.93"
     ry="4.5500002"
     id="ellipse165"
     style="opacity:0.1;fill:#63ff6f" />
  <ellipse
     cx="810.56641"
     cy="797.97968"
     rx="40.209999"
     ry="6.8000002"
     id="ellipse167"
     style="fill:#63ff6f" />
  <path
     d="m 827.18643,786.86971 a 11.64,11.64 0 0 0 3.83,-5.79 c 0.5,-2.3 -0.48,-5.05 -2.67,-5.89 -2.46,-0.94 -5.09,0.76 -7.09,2.49 -2,1.73 -4.27,3.68 -6.88,3.32 a 10.5,10.5 0 0 0 3.24,-9.81 4.08,4.08 0 0 0 -0.9,-2 c -1.37,-1.46 -3.84,-0.84 -5.48,0.31 -5.2,3.66 -6.65,10.72 -6.68,17.08 -0.52,-2.29 -0.08,-4.68 -0.09,-7 -0.01,-2.32 -0.66,-5 -2.64,-6.23 a 8,8 0 0 0 -4,-0.94 c -2.34,-0.09 -4.95,0.14 -6.54,1.85 -2,2.13 -1.47,5.69 0.25,8 1.72,2.31 4.36,3.8 6.77,5.42 a 15.13,15.13 0 0 1 4.84,4.61 4.81,4.81 0 0 1 0.35,0.83 h 14.66 a 41.11,41.11 0 0 0 9.03,-6.25 z"
     id="path169"
     inkscape:connector-curvature="0"
     style="fill:#63ff6f" />
  <path
     d="m 116.45,739.16971 c 0,0 5.5,7.19 -2.53,18 -8.03,10.81 -14.65,20 -12,26.77 0,0 12.12,-20.15 22,-20.43 9.88,-0.28 3.38,-12.22 -7.47,-24.34 z"
     id="path171"
     inkscape:connector-curvature="0"
     style="fill:#63ff6f" />
  <path
     d="m 116.45,739.16971 a 9,9 0 0 1 1.13,2.26 c 9.62,11.3 14.74,21.85 5.49,22.11 -8.61,0.25 -18.94,15.65 -21.42,19.54 a 9.24,9.24 0 0 0 0.29,0.89 c 0,0 12.12,-20.15 22,-20.43 9.88,-0.28 3.36,-12.25 -7.49,-24.37 z"
     id="path173"
     inkscape:connector-curvature="0"
     style="opacity:0.1" />
  <path
     d="m 126.66,748.32971 c 0,2.53 -0.28,4.58 -0.63,4.58 -0.35,0 -0.63,-2 -0.63,-4.58 0,-2.58 0.35,-1.34 0.7,-1.34 0.35,0 0.56,-1.19 0.56,1.34 z"
     id="path175"
     inkscape:connector-curvature="0"
     style="fill:#ffd037" />
  <path
     d="m 130.17,751.34971 c -2.22,1.21 -4.16,1.94 -4.32,1.63 -0.16,-0.31 1.49,-1.54 3.71,-2.75 2.22,-1.21 1.35,-0.33 1.51,0 0.16,0.33 1.32,-0.09 -0.9,1.12 z"
     id="path177"
     inkscape:connector-curvature="0"
     style="fill:#ffd037" />
  <path
     d="m 87.44,739.16971 c 0,0 -5.5,7.19 2.53,18 8.03,10.81 14.65,20 12,26.77 0,0 -12.11,-20.15 -22,-20.43 -9.89,-0.28 -3.38,-12.22 7.47,-24.34 z"
     id="path179"
     inkscape:connector-curvature="0"
     style="fill:#63ff6f" />
  <path
     d="m 87.44,739.16971 a 9,9 0 0 0 -1.13,2.26 c -9.62,11.3 -14.74,21.85 -5.49,22.11 8.61,0.25 18.94,15.65 21.42,19.54 a 7.16,7.16 0 0 1 -0.3,0.89 c 0,0 -12.11,-20.15 -22,-20.43 -9.89,-0.28 -3.35,-12.25 7.5,-24.37 z"
     id="path181"
     inkscape:connector-curvature="0"
     style="opacity:0.1" />
  <path
     d="m 77.22,748.32971 c 0,2.53 0.29,4.58 0.64,4.58 0.35,0 0.63,-2 0.63,-4.58 0,-2.58 -0.35,-1.34 -0.7,-1.34 -0.35,0 -0.57,-1.19 -0.57,1.34 z"
     id="path183"
     inkscape:connector-curvature="0"
     style="fill:#ffd037" />
  <path
     d="m 73.72,751.34971 c 2.22,1.21 4.15,1.94 4.32,1.63 0.17,-0.31 -1.49,-1.54 -3.71,-2.75 -2.22,-1.21 -1.35,-0.33 -1.52,0 -0.17,0.33 -1.31,-0.09 0.91,1.12 z"
     id="path185"
     inkscape:connector-curvature="0"
     style="fill:#ffd037" />
  <path
     d="m 79,783.02971 c 0,0 15.36,-0.48 20,-3.77 4.64,-3.29 23.63,-7.24 24.78,-1.95 1.15,5.29 23.08,26.29 5.74,26.43 -17.34,0.14 -40.29,-2.7 -44.91,-5.51 -4.62,-2.81 -5.61,-15.2 -5.61,-15.2 z"
     id="path187"
     inkscape:connector-curvature="0"
     style="fill:#a8a8a8" />
  <path
     d="m 129.79,801.89971 c -17.34,0.14 -40.3,-2.7 -44.92,-5.51 -3.51,-2.15 -4.92,-9.84 -5.38,-13.38 h -0.52 c 0,0 1,12.38 5.6,15.2 4.6,2.82 27.57,5.65 44.91,5.51 5,0 6.73,-1.82 6.64,-4.46 -0.7,1.62 -2.61,2.61 -6.33,2.64 z"
     id="path189"
     inkscape:connector-curvature="0"
     style="opacity:0.2" />
  <path
     d="m 466.5,504.34971 c 0,-20.44 16.63,-36.14 37.08,-36.14 h 0.29 v -9.3 h -0.29 c -25.58,0 -46.38,19.87 -46.38,45.44 a 46.26,46.26 0 0 0 15.89,34.9 l 6.59,-6.59 a 37,37 0 0 1 -13.18,-28.31 z"
     id="path191"
     inkscape:connector-curvature="0"
     style="fill:#63ff6f" />
  <path
     d="m 504.8,458.91971 v 9.3 a 37.07,37.07 0 1 1 -24.19,65.37 l -6.61,6.59 a 46.36,46.36 0 1 0 30.78,-81.26 z"
     id="path193"
     inkscape:connector-curvature="0"
     style="opacity:0.5;fill:#63ff6f" />
  <path
     d="m 808.8,467.73971 c 20.44,0 36.14,16.63 36.14,37.08 0,0.09 0,0.19 0,0.29 h 9.3 c 0,-0.1 0,-0.2 0,-0.29 0,-25.57 -19.87,-46.38 -45.44,-46.38 a 46.24,46.24 0 0 0 -34.9,15.89 l 6.59,6.59 a 37,37 0 0 1 28.31,-13.18 z"
     id="path195"
     inkscape:connector-curvature="0"
     style="opacity:0.5;fill:#63ff6f" />
  <path
     d="m 854.23,506.03971 h -9.3 a 37.07,37.07 0 1 1 -65.37,-24.19 l -6.56,-6.59 a 46.36,46.36 0 1 0 81.26,30.78 z"
     id="path197"
     inkscape:connector-curvature="0"
     style="fill:#63ff6f" />
  <path
     d="m 674,461.63971 -1.85,9.26 c 13.61,5.49 22.31,18.83 22.31,34.38 a 37.07,37.07 0 1 1 -51.93,-33.95 l -4.12,-8.35 a 46.36,46.36 0 1 0 65.39,42.3 c 0,-20.07 -11.88,-37.19 -29.8,-43.64 z"
     id="path199"
     inkscape:connector-curvature="0"
     style="opacity:0.5;fill:#63ff6f" />
  <path
     d="m 658.59,467.66971 a 32.38,32.38 0 0 1 12.91,2.68 l 1.85,-9.25 a 40.9,40.9 0 0 0 -14.76,-2.73 46.17,46.17 0 0 0 -19,4.09 l 4.16,8.33 a 36.69,36.69 0 0 1 14.84,-3.12 z"
     id="path201"
     inkscape:connector-curvature="0"
     style="fill:#63ff6f" />
</svg>
